# xmcd
#
# Track frame offsets: 
#        150
#        15766
#        28069
#        36361
#        46707
#        61535
#        76283
#        87027
#        101238
#        115195
#        129035
#        141964
#        152857
#        165538
#        176021
#        187519
#
# Disc length: 2796 seconds
#
# Revision: 0
# Processed by: cddbd v1.5.2PL0 Copyright (c) Steve Scherf et al.
# Submitted via: ExactAudioCopy v0.95b4
#
DISCID=b30aea10
DTITLE=Various Artist - Песни нашего века - В.Высоцкий
DYEAR=2008
DGENRE=
TTITLE0=Натянутый канат
TTITLE1=Прощание с горами
TTITLE2=Большой Каретный
TTITLE3=Утренняя гимнастика
TTITLE4=Здесь лапы у елей дрожат на весу
TTITLE5=Он не вернулся из боя
TTITLE6=Расстрел горного эха
TTITLE7=Про дикого вепря
TTITLE8=Тот, кто раньше с нею был
TTITLE9=Охота на волков
TTITLE10=Я несла свою беду
TTITLE11=Песня о друге
TTITLE12=Пародия на плохой детектив
TTITLE13=Песенка о переселении душ
TTITLE14=Здесь вам не равнина
TTITLE15=Купола
EXTD=
EXTT0=
EXTT1=
EXTT2=
EXTT3=
EXTT4=
EXTT5=
EXTT6=
EXTT7=
EXTT8=
EXTT9=
EXTT10=
EXTT11=
EXTT12=
EXTT13=
EXTT14=
EXTT15=
PLAYORDER=
